<svg width="998" height="194" viewBox="0 0 998 194" fill="none" xmlns="http://www.w3.org/2000/svg">
<path fill-rule="evenodd" clip-rule="evenodd" d="M693.251 139.37C687.446 150.928 679.167 159.794 668.414 165.967C657.662 172.139 644.859 175.225 630.005 175.225H576.233C581.413 174.391 586.364 173.441 591.089 172.375C598.18 170.776 604.762 168.919 610.846 166.807C636.99 157.731 653.915 143.964 662.385 125.896C662.555 125.535 662.722 125.17 662.885 124.802C665.852 118.045 667.334 109.089 667.334 97.9372C667.334 86.7653 665.83 77.8132 662.822 71.0818C659.929 64.6032 655.735 59.8481 650.241 56.8156C679.008 67.8162 692.877 96.0413 693.251 139.37Z" fill="url(#paint0_linear_503_73)"/>
<path fill-rule="evenodd" clip-rule="evenodd" d="M576.233 175.225V20.641H630.005C644.868 20.641 657.664 23.7323 668.395 29.9149C679.127 36.0965 687.403 44.9579 693.224 56.5C699.046 68.0421 701.956 81.8546 701.956 97.9373C701.956 114 699.055 127.811 693.251 139.37C692.877 96.0414 679.008 67.8163 650.241 56.8156C650.024 56.697 649.805 56.5805 649.586 56.466C643.769 53.4541 636.593 51.9481 628.058 51.9481H610.846V143.917H628.528C636.908 143.917 643.987 142.42 649.766 139.427C655.231 136.598 659.436 132.087 662.385 125.896C653.915 143.964 636.99 157.732 610.846 166.807C604.762 168.919 598.18 170.777 591.089 172.375C586.364 173.441 581.413 174.391 576.233 175.225Z" fill="url(#paint1_linear_503_73)"/>
<path fill-rule="evenodd" clip-rule="evenodd" d="M407.546 35.0686C421.05 45.9454 426.835 59.2369 428.094 65.8506C429.353 59.2369 436.821 44.5911 448.642 35.0686C454.492 30.3568 461.234 26.7725 468.874 24.3186C476.515 21.8658 484.805 20.6394 493.748 20.6394C507.074 20.6394 519.118 23.6306 529.88 29.6142C540.64 35.5957 549.168 44.3507 555.465 55.8763C514.877 35.9546 486.537 37.0727 470.941 60.0837C469.26 61.7763 467.824 63.698 466.636 65.8506C465.015 68.7851 463.922 72.1034 463.357 75.8043H392.831C392.265 72.1034 391.173 68.7851 389.552 65.8506C387.931 62.9161 385.853 60.4096 383.317 58.3302C380.782 56.2508 377.834 54.6644 374.473 53.5731C371.112 52.4818 367.408 51.9361 363.362 51.9361C356.025 51.9361 349.679 53.7526 344.325 57.3864C338.97 61.0192 334.861 66.2663 332 73.1266C342.596 38.9201 368.385 27.1304 407.546 35.0686Z" fill="url(#paint2_linear_503_73)"/>
<path fill-rule="evenodd" clip-rule="evenodd" d="M555.465 55.8763C561.76 67.4019 564.908 81.4536 564.908 98.0323C564.908 114.491 561.798 128.471 555.579 139.973C549.36 151.473 540.882 160.223 530.148 166.223C519.411 172.223 507.278 175.223 493.748 175.223C483.51 175.223 474.417 173.634 466.47 170.457C458.523 167.279 451.599 163.165 446.121 157.687C432.37 143.936 429.094 134.592 428.094 130.001C465.808 159.858 510.277 159.9 524.098 123.335C527.018 116.5 528.479 108.065 528.479 98.0323C528.479 88.2891 527.048 79.9878 524.188 73.1265C521.327 66.2662 517.218 61.0192 511.863 57.3864C506.508 53.7525 500.163 51.9361 492.826 51.9361C488.78 51.9361 485.076 52.4817 481.715 53.573C478.354 54.6643 475.406 56.2507 472.87 58.3301C472.195 58.884 471.551 59.4689 470.94 60.0836C486.537 37.0727 514.877 35.9545 555.465 55.8763Z" fill="url(#paint3_linear_503_73)"/>
<path fill-rule="evenodd" clip-rule="evenodd" d="M428.094 130.001C427.094 134.592 423.622 144.817 410.066 157.687C404.448 163.022 397.665 167.279 389.718 170.457C381.77 173.634 372.678 175.223 362.44 175.223C348.91 175.223 336.777 172.223 326.04 166.223C360.805 166.687 384.354 154.334 392.103 123.924C392.467 122.684 392.761 121.395 392.984 120.057H463.203C463.82 123.744 464.965 127.058 466.637 130.001C468.309 132.941 470.438 135.449 473.025 137.521C475.611 139.592 478.571 141.178 481.906 142.277C485.242 143.377 488.932 143.925 492.979 143.925C500.198 143.925 506.459 142.203 511.762 138.757C517.066 135.312 521.177 130.171 524.098 123.335C510.277 159.9 465.808 159.858 428.094 130.001Z" fill="url(#paint4_linear_503_73)"/>
<path fill-rule="evenodd" clip-rule="evenodd" d="M326.04 166.223C315.306 160.223 306.828 151.473 300.608 139.973C294.389 128.471 291.28 114.491 291.28 98.0324C291.28 81.4536 294.428 67.4019 300.724 55.8763C307.02 44.3507 315.549 35.5957 326.309 29.6142C337.071 23.6306 349.114 20.6394 362.439 20.6394C371.382 20.6394 379.673 21.8658 387.313 24.3186C394.953 26.7725 401.696 30.3568 407.545 35.0686C368.385 27.1304 342.596 38.9201 332 73.1266C329.14 79.9879 327.709 88.2892 327.709 98.0324C327.709 108.065 329.169 116.5 332.09 123.335C335.011 130.171 339.122 135.312 344.426 138.757C349.729 142.203 355.99 143.925 363.209 143.925C367.255 143.925 370.946 143.377 374.282 142.277C377.616 141.178 380.577 139.592 383.163 137.521C385.75 135.449 387.879 132.941 389.55 130.001C390.616 128.125 391.467 126.101 392.103 123.924C384.354 154.334 360.805 166.687 326.04 166.223Z" fill="url(#paint5_linear_503_73)"/>
<path fill-rule="evenodd" clip-rule="evenodd" d="M713.269 57.4557V39.0471C713.269 28.8882 721.518 20.6395 731.678 20.6395H814.777C789.241 45.3308 755.73 57.3082 714.802 57.4557C714.291 57.4567 713.781 57.4567 713.269 57.4557Z" fill="url(#paint6_linear_503_73)"/>
<path fill-rule="evenodd" clip-rule="evenodd" d="M814.777 20.6395V39.0471C814.777 49.207 806.528 57.4557 796.369 57.4557H714.802C755.73 57.3082 789.241 45.3308 814.777 20.6395Z" fill="url(#paint7_linear_503_73)"/>
<path fill-rule="evenodd" clip-rule="evenodd" d="M714.891 114.725C713.889 113.725 713.269 112.343 713.269 110.816V85.0453C713.269 81.9973 715.743 79.5228 718.791 79.5228H809.254C811.049 79.5228 812.646 80.381 813.654 81.7085C804.21 102.699 770.688 113.449 714.891 114.725Z" fill="url(#paint8_linear_503_73)"/>
<path fill-rule="evenodd" clip-rule="evenodd" d="M813.654 81.7085C814.359 82.6358 814.777 83.7921 814.777 85.0453V110.816C814.777 113.864 812.302 116.339 809.254 116.339H718.791C717.269 116.339 715.891 115.722 714.891 114.725C770.688 113.449 804.21 102.699 813.654 81.7085Z" fill="url(#paint9_linear_503_73)"/>
<path fill-rule="evenodd" clip-rule="evenodd" d="M713.269 175.223V156.815C713.269 146.655 721.518 138.406 731.678 138.406H814.777C795.921 163.165 762.096 175.132 714.376 175.223C714.007 175.223 713.638 175.223 713.269 175.223Z" fill="url(#paint10_linear_503_73)"/>
<path fill-rule="evenodd" clip-rule="evenodd" d="M814.777 138.406V156.815C814.777 166.975 806.528 175.223 796.369 175.223H714.376C762.096 175.132 795.921 163.165 814.777 138.406Z" fill="url(#paint11_linear_503_73)"/>
<path fill-rule="evenodd" clip-rule="evenodd" d="M826.095 18.9872H857.262C866.525 18.9872 879.677 26.5066 886.615 35.7692L932.678 97.2714L900.331 140.459C914.437 107.283 886.722 62.1159 826.095 18.9872Z" fill="url(#paint12_linear_503_73)"/>
<path fill-rule="evenodd" clip-rule="evenodd" d="M900.331 140.459L886.615 158.773C879.677 168.035 866.525 175.556 857.262 175.556C874.904 158.162 879.719 138.363 870.719 115.974L884.727 97.2714L826.095 18.9872C886.722 62.1159 914.437 107.283 900.331 140.459Z" fill="url(#paint13_linear_503_73)"/>
<path fill-rule="evenodd" clip-rule="evenodd" d="M857.262 175.555H826.095L870.719 115.974C879.719 138.363 874.904 158.162 857.262 175.555Z" fill="url(#paint14_linear_503_73)"/>
<path fill-rule="evenodd" clip-rule="evenodd" d="M997.467 18.9872L938.834 97.2714C934.685 65.0339 955.581 39.2895 997.467 18.9872Z" fill="url(#paint15_linear_503_73)"/>
<path fill-rule="evenodd" clip-rule="evenodd" d="M938.834 97.2714L914.859 65.2598L936.945 35.7692C943.883 26.5066 957.035 18.9872 966.299 18.9872H997.467C955.581 39.2895 934.686 65.0339 938.834 97.2714Z" fill="url(#paint16_linear_503_73)"/>
<path fill-rule="evenodd" clip-rule="evenodd" d="M938.834 97.2712L997.467 175.555C961.159 157.197 941.894 130.973 938.834 97.2712Z" fill="url(#paint17_linear_503_73)"/>
<path fill-rule="evenodd" clip-rule="evenodd" d="M997.467 175.555H966.299C957.035 175.555 943.883 168.035 936.945 158.772L914.859 129.282L938.834 97.2712C941.894 130.973 961.159 157.197 997.467 175.555Z" fill="url(#paint18_linear_503_73)"/>
<path fill-rule="evenodd" clip-rule="evenodd" d="M65.4166 121.669C40.3083 106.005 28.8181 81.1254 42.8105 30.9154C60.3369 13.244 76.5821 0 76.5821 0C121.226 61.2862 55.4697 60.2761 55.4697 99.2662C55.4697 108.939 59.7824 115.766 65.4166 121.669Z" fill="url(#paint19_linear_503_73)"/>
<path fill-rule="evenodd" clip-rule="evenodd" d="M65.4166 121.669C81.4663 138.484 108.239 147.793 76.5821 193.974C76.5821 193.974 0 135.134 0 97.0602C0 78.3819 22.2837 51.612 42.8105 30.9154C28.8181 81.1254 40.3083 106.005 65.4166 121.669Z" fill="url(#paint20_linear_503_73)"/>
<path fill-rule="evenodd" clip-rule="evenodd" d="M186.739 121.669C211.848 106.005 223.338 81.1254 209.345 30.9154C191.819 13.244 175.574 0 175.574 0C130.93 61.2862 196.686 60.2761 196.686 99.2662C196.686 108.939 192.374 115.766 186.739 121.669Z" fill="url(#paint21_linear_503_73)"/>
<path fill-rule="evenodd" clip-rule="evenodd" d="M186.739 121.669C170.69 138.484 143.917 147.793 175.574 193.974C175.574 193.974 252.156 135.134 252.156 97.0602C252.156 78.3819 229.872 51.612 209.346 30.9154C223.338 81.1254 211.848 106.005 186.739 121.669Z" fill="url(#paint22_linear_503_73)"/>
<path fill-rule="evenodd" clip-rule="evenodd" d="M136.3 56.0976L166.967 86.7646C172.609 92.4064 172.609 101.567 166.967 107.209L136.3 137.876C130.658 143.518 121.498 143.518 115.856 137.876L85.1888 107.209C79.5467 101.567 79.5467 92.4064 85.1888 86.7644L115.856 56.0976C121.498 50.4555 130.658 50.4555 136.3 56.0976Z" fill="url(#paint23_linear_503_73)"/>
<defs>
<linearGradient id="paint0_linear_503_73" x1="653.59" y1="56.816" x2="588.104" y2="175.557" gradientUnits="userSpaceOnUse">
<stop stop-color="#202C60"/>
<stop offset="0.54" stop-color="#2D3D6E"/>
<stop offset="1" stop-color="#5979A2"/>
</linearGradient>
<linearGradient id="paint1_linear_503_73" x1="576.232" y1="175.225" x2="680.296" y2="39.917" gradientUnits="userSpaceOnUse">
<stop stop-color="#202C60"/>
<stop offset="1" stop-color="#5979A2"/>
</linearGradient>
<linearGradient id="paint2_linear_503_73" x1="555.465" y1="54.6182" x2="341.294" y2="53.332" gradientUnits="userSpaceOnUse">
<stop stop-color="#5979A2"/>
<stop offset="0.55" stop-color="#314373"/>
<stop offset="1" stop-color="#202C60"/>
</linearGradient>
<linearGradient id="paint3_linear_503_73" x1="428.094" y1="131.788" x2="560.37" y2="68.3372" gradientUnits="userSpaceOnUse">
<stop stop-color="#5979A2"/>
<stop offset="1" stop-color="#202C60"/>
</linearGradient>
<linearGradient id="paint4_linear_503_73" x1="326.04" y1="166.235" x2="451.475" y2="120.058" gradientUnits="userSpaceOnUse">
<stop stop-color="#202C60"/>
<stop offset="0.54" stop-color="#2D3D6E"/>
<stop offset="1" stop-color="#5979A2"/>
</linearGradient>
<linearGradient id="paint5_linear_503_73" x1="332" y1="166.235" x2="349.413" y2="20.6392" gradientUnits="userSpaceOnUse">
<stop stop-color="#202C60"/>
<stop offset="1" stop-color="#5979A2"/>
</linearGradient>
<linearGradient id="paint6_linear_503_73" x1="713.269" y1="20.6394" x2="784.665" y2="43.8392" gradientUnits="userSpaceOnUse">
<stop stop-color="#202C60"/>
<stop offset="0.48" stop-color="#4C6792"/>
<stop offset="1" stop-color="#5979A2"/>
</linearGradient>
<linearGradient id="paint7_linear_503_73" x1="814.777" y1="20.6394" x2="763.462" y2="57.4557" gradientUnits="userSpaceOnUse">
<stop stop-color="#5979A2"/>
<stop offset="1" stop-color="#202C60"/>
</linearGradient>
<linearGradient id="paint8_linear_503_73" x1="713.269" y1="114.725" x2="800.899" y2="75.3698" gradientUnits="userSpaceOnUse">
<stop stop-color="#F8CA07"/>
<stop offset="1" stop-color="#FFA200"/>
</linearGradient>
<linearGradient id="paint9_linear_503_73" x1="818.337" y1="90.428" x2="714.375" y2="114.725" gradientUnits="userSpaceOnUse">
<stop stop-color="#F8CA07"/>
<stop offset="1" stop-color="#FFA200"/>
</linearGradient>
<linearGradient id="paint10_linear_503_73" x1="713.269" y1="175.223" x2="813.654" y2="138.407" gradientUnits="userSpaceOnUse">
<stop stop-color="#202C60"/>
<stop offset="0.48" stop-color="#4C6792"/>
<stop offset="1" stop-color="#5979A2"/>
</linearGradient>
<linearGradient id="paint11_linear_503_73" x1="744.081" y1="175.223" x2="813.654" y2="145.299" gradientUnits="userSpaceOnUse">
<stop stop-color="#202C60"/>
<stop offset="0.58" stop-color="#47608D"/>
<stop offset="1" stop-color="#5979A2"/>
</linearGradient>
<linearGradient id="paint12_linear_503_73" x1="932.678" y1="97.2712" x2="859.308" y2="97.2712" gradientUnits="userSpaceOnUse">
<stop stop-color="#202C60"/>
<stop offset="0.58" stop-color="#47608D"/>
<stop offset="1" stop-color="#5979A2"/>
</linearGradient>
<linearGradient id="paint13_linear_503_73" x1="862.117" y1="94.7192" x2="910.506" y2="97.2712" gradientUnits="userSpaceOnUse">
<stop stop-color="#202C60"/>
<stop offset="0.58" stop-color="#47608D"/>
<stop offset="1" stop-color="#5979A2"/>
</linearGradient>
<linearGradient id="paint14_linear_503_73" x1="826.095" y1="175.223" x2="872.419" y2="124.377" gradientUnits="userSpaceOnUse">
<stop stop-color="#202C60"/>
<stop offset="0.58" stop-color="#47608D"/>
<stop offset="1" stop-color="#5979A2"/>
</linearGradient>
<linearGradient id="paint15_linear_503_73" x1="997.466" y1="18.9868" x2="938.834" y2="94.6292" gradientUnits="userSpaceOnUse">
<stop stop-color="#F8CA07"/>
<stop offset="1" stop-color="#FFA200"/>
</linearGradient>
<linearGradient id="paint16_linear_503_73" x1="921.342" y1="97.2712" x2="961.442" y2="18.9869" gradientUnits="userSpaceOnUse">
<stop stop-color="#F8CA07"/>
<stop offset="1" stop-color="#FFA200"/>
</linearGradient>
<linearGradient id="paint17_linear_503_73" x1="993.563" y1="175.555" x2="938.834" y2="97.2711" gradientUnits="userSpaceOnUse">
<stop stop-color="#F8CA07"/>
<stop offset="1" stop-color="#FFA200"/>
</linearGradient>
<linearGradient id="paint18_linear_503_73" x1="938.316" y1="97.2711" x2="938.834" y2="175.555" gradientUnits="userSpaceOnUse">
<stop stop-color="#F8CA07"/>
<stop offset="1" stop-color="#FFA200"/>
</linearGradient>
<linearGradient id="paint19_linear_503_73" x1="64.4476" y1="121.669" x2="76.6908" y2="-2.12606" gradientUnits="userSpaceOnUse">
<stop stop-color="#202C60"/>
<stop offset="0.42" stop-color="#435481"/>
<stop offset="1" stop-color="#8FACCA"/>
</linearGradient>
<linearGradient id="paint20_linear_503_73" x1="75.9679" y1="193.974" x2="1.18715e-05" y2="35.9798" gradientUnits="userSpaceOnUse">
<stop stop-color="#202C60"/>
<stop offset="0.49" stop-color="#4B6692"/>
<stop offset="1" stop-color="#5979A2"/>
</linearGradient>
<linearGradient id="paint21_linear_503_73" x1="187.708" y1="121.669" x2="175.465" y2="-2.12606" gradientUnits="userSpaceOnUse">
<stop stop-color="#202C60"/>
<stop offset="0.42" stop-color="#435481"/>
<stop offset="1" stop-color="#8FACCA"/>
</linearGradient>
<linearGradient id="paint22_linear_503_73" x1="176.188" y1="193.974" x2="252.156" y2="35.9798" gradientUnits="userSpaceOnUse">
<stop stop-color="#202C60"/>
<stop offset="0.49" stop-color="#4B6692"/>
<stop offset="1" stop-color="#5979A2"/>
</linearGradient>
<linearGradient id="paint23_linear_503_73" x1="126.078" y1="70.2209" x2="126.078" y2="142.108" gradientUnits="userSpaceOnUse">
<stop stop-color="#F8CA07"/>
<stop offset="0.53" stop-color="#FDAD02"/>
<stop offset="1" stop-color="#FFA200"/>
</linearGradient>
</defs>
</svg>
